<svg xmlns="http://www.w3.org/2000/svg" width="256" height="256" viewBox="0 0 100 100"><rect width="100" height="100" rx="20" fill="#02c9c9"></rect><path fill="#ffffff" d="M75.51 20.89L75.51 20.89Q76.13 20.89 76.67 21.35Q77.22 21.81 77.22 22.56L77.22 22.56Q77.22 23.48 76.39 23.96L76.39 23.96Q76.35 24.01 75.18 24.80Q74.02 25.59 72.43 27.26L72.43 27.26Q75.73 27.65 79.16 27.65L79.16 27.65Q82.50 27.65 85.24 27.19Q87.99 26.73 90.17 25.92Q92.34 25.10 93.95 24.01Q95.55 22.91 96.60 21.59L96.60 21.59Q96.87 21.28 97.22 21.08Q97.57 20.89 97.97 20.89L97.97 20.89Q98.67 20.89 99.13 21.41Q99.59 21.94 99.59 22.56L99.59 22.56Q99.59 23.17 99.28 23.52L99.28 23.52Q98.23 24.93 96.47 26.27Q94.71 27.61 92.21 28.66Q89.70 29.72 86.45 30.36Q83.20 30.99 79.20 30.99L79.20 30.99Q76.92 30.99 74.63 30.80Q72.35 30.60 70.06 30.25L70.06 30.25Q69.05 31.70 68.19 33.50Q67.34 35.30 66.81 37.45L66.81 37.45Q65.89 41.15 65.78 45.28Q65.67 49.41 65.60 53.69Q65.53 57.98 65.18 62.22Q64.83 66.46 63.51 70.41L63.51 70.41Q62.50 73.40 60.81 75.95Q59.12 78.50 56.68 80.37Q54.24 82.23 51.10 83.31Q47.96 84.39 44.05 84.39L44.05 84.39Q37.63 84.39 32.44 81.84Q27.26 79.29 23.44 73.80L23.44 73.80Q23.30 73.58 23.08 73.18Q22.86 72.79 22.86 72.39L22.86 72.39Q22.86 71.77 23.30 71.20Q23.74 70.63 24.53 70.63L24.53 70.63Q25.02 70.63 25.41 70.87Q25.81 71.12 26.03 71.47L26.03 71.47Q29.24 76.39 33.54 78.74Q37.85 81.09 44.00 81.09L44.00 81.09Q47.25 81.09 49.85 80.28Q52.44 79.47 54.44 77.95Q56.44 76.43 57.89 74.24Q59.34 72.04 60.31 69.23L60.31 69.23Q61.36 66.15 61.65 62.13Q61.93 58.11 62.02 53.74Q62.11 49.36 62.35 44.97Q62.59 40.57 63.56 36.66L63.56 36.66Q64.04 34.60 64.83 32.84Q65.62 31.08 66.50 29.59L66.50 29.59Q60.61 28.40 54.79 26.58Q48.97 24.75 43.41 23.06Q37.85 21.37 32.69 20.14Q27.52 18.91 22.95 18.91L22.95 18.91Q18.78 18.91 15.24 20.10Q11.70 21.28 9.13 23.44Q6.56 25.59 5.13 28.62Q3.70 31.65 3.70 35.34L3.70 35.34Q3.70 38.02 4.65 40.27Q5.59 42.51 7.26 44.16Q8.93 45.80 11.22 46.73Q13.50 47.65 16.23 47.65L16.23 47.65Q19.08 47.65 21.33 46.79Q23.57 45.94 25.28 44.66Q26.99 43.39 28.20 41.89Q29.41 40.40 30.18 39.10Q30.95 37.81 31.32 36.95Q31.70 36.09 31.70 36.09L31.70 36.09Q31.87 35.61 32.31 35.30Q32.75 34.99 33.28 34.99L33.28 34.99Q34.03 34.99 34.49 35.50Q34.95 36.00 34.95 36.66L34.95 36.66Q34.95 36.79 34.93 36.90Q34.90 37.01 34.86 37.15L34.86 37.15Q34.82 37.23 34.38 38.31Q33.94 39.39 33.02 40.90Q32.09 42.42 30.64 44.18Q29.19 45.94 27.13 47.45Q25.06 48.97 22.36 49.96Q19.66 50.94 16.18 50.94L16.18 50.94Q12.84 50.94 9.97 49.76Q7.09 48.57 4.96 46.51Q2.82 44.44 1.62 41.58Q0.41 38.73 0.41 35.34L0.41 35.34Q0.41 30.86 2.12 27.24Q3.84 23.61 6.87 21.02Q9.90 18.43 14.03 17.02Q18.16 15.61 23.00 15.61L23.00 15.61Q26.51 15.61 30.07 16.23Q33.63 16.84 37.30 17.85Q40.97 18.86 44.75 20.10Q48.53 21.33 52.42 22.58Q56.31 23.83 60.33 24.93Q64.35 26.03 68.52 26.73L68.52 26.73Q69.62 25.37 70.70 24.31Q71.77 23.26 72.63 22.58Q73.49 21.90 74.06 21.52Q74.63 21.15 74.72 21.11L74.72 21.11Q75.16 20.89 75.51 20.89Z"></path></svg>